<svg width="1924" height="641" viewBox="0 0 1924 641" fill="none" xmlns="http://www.w3.org/2000/svg">
<rect width="1924" height="641" fill="white"/>
<path d="M539.77 478V175.352H426.818V165.162H663.344V175.352H550.393V478H539.77ZM731.418 481.469C700.488 481.469 675.701 470.629 657.057 448.949C638.123 427.125 628.656 397.93 628.656 361.363C628.656 324.797 638.123 295.529 657.057 273.561C675.846 252.025 700.633 241.258 731.418 241.258C762.203 241.258 786.99 252.025 805.779 273.561C824.713 295.529 834.18 324.797 834.18 361.363C834.18 397.93 824.713 427.125 805.779 448.949C786.99 470.629 762.203 481.469 731.418 481.469ZM731.418 471.279C759.168 471.279 781.426 461.379 798.191 441.578C815.102 421.633 823.557 394.895 823.557 361.363C823.557 327.688 815.102 300.877 798.191 280.932C781.426 261.131 759.168 251.23 731.418 251.23C703.668 251.23 681.482 261.131 664.861 280.932C647.951 300.877 639.496 327.688 639.496 361.363C639.496 395.039 647.951 421.777 664.861 441.578C681.482 461.379 703.668 471.279 731.418 471.279ZM874.287 244.727H884.26V299.793H884.693C889.752 282.305 899.725 268.213 914.611 257.518C929.787 246.678 947.42 241.258 967.51 241.258C993.381 241.258 1014.27 248.99 1030.16 264.455C1046.21 280.209 1054.23 301.094 1054.23 327.109V478H1043.61V327.543C1043.61 304.273 1036.38 285.629 1021.93 271.609C1007.76 258.023 989.117 251.23 965.992 251.23C942.145 251.23 922.705 259.324 907.674 275.512C892.498 291.699 884.91 312.512 884.91 337.949V478H874.287V244.727ZM1283.6 478H1273.63V423.584H1273.19C1268.42 440.061 1258.16 453.791 1242.41 464.775C1226.22 475.904 1208.3 481.469 1188.64 481.469C1163.35 481.469 1142.9 473.809 1127.29 458.488C1111.39 443.023 1103.44 422.428 1103.44 396.701V244.727H1114.06V395.184C1114.06 418.887 1121.15 437.604 1135.31 451.334C1149.04 464.631 1167.25 471.279 1189.94 471.279C1213.5 471.279 1233.09 463.547 1248.7 448.082C1264.74 432.039 1272.76 411.154 1272.76 385.428V244.727H1283.6V478ZM1403.71 368.301L1323.49 478H1310.27L1397.63 359.195L1310.48 244.727H1323.92L1403.92 350.74H1404.36L1484.35 244.727H1497.79L1410.64 358.979L1497.58 478H1484.57L1404.36 368.301H1403.71Z" fill="url(#paint0_linear)"/>
<defs>
<linearGradient id="paint0_linear" x1="424" y1="28" x2="1499" y2="28" gradientUnits="userSpaceOnUse">
<stop stop-color="#3785DF"/>
<stop offset="0.142857" stop-color="#8F80E0"/>
<stop offset="0.285714" stop-color="#CA7AD3"/>
<stop offset="0.428571" stop-color="#F476BB"/>
<stop offset="0.571429" stop-color="#FF7C9C"/>
<stop offset="0.714286" stop-color="#FF8D7D"/>
<stop offset="0.857143" stop-color="#FFA563"/>
<stop offset="1" stop-color="#FFC053"/>
</linearGradient>
</defs>
</svg>
