<svg width="1924" height="641" viewBox="0 0 1924 641" fill="none" xmlns="http://www.w3.org/2000/svg">
<rect width="1924" height="641" fill="white"/>
<path d="M528.469 478V180.988H418.336V165.162H655.945V180.988H545.812V478H528.469ZM728.139 481.035C696.92 481.035 671.844 470.268 652.91 448.732C633.832 426.908 624.293 397.785 624.293 361.363C624.293 324.797 633.832 295.602 652.91 273.777C671.844 252.242 696.92 241.475 728.139 241.475C759.502 241.475 784.65 252.242 803.584 273.777C822.662 295.602 832.201 324.797 832.201 361.363C832.201 397.785 822.662 426.908 803.584 448.732C784.506 470.268 759.357 481.035 728.139 481.035ZM728.139 465.859C754.443 465.859 775.473 456.465 791.227 437.676C807.125 418.742 815.074 393.305 815.074 361.363C815.074 329.277 807.125 303.768 791.227 284.834C775.617 266.189 754.588 256.867 728.139 256.867C701.689 256.867 680.66 266.189 665.051 284.834C649.152 303.768 641.203 329.277 641.203 361.363C641.203 393.449 649.152 418.887 665.051 437.676C680.805 456.465 701.834 465.859 728.139 465.859ZM872.309 244.51H888.135V295.891H888.785C894.277 279.414 904.25 266.262 918.703 256.434C933.301 246.461 950.428 241.475 970.084 241.475C995.955 241.475 1016.7 249.207 1032.3 264.672C1048.2 280.281 1056.15 301.166 1056.15 327.326V478H1039.24V329.277C1039.24 306.875 1032.52 289.17 1019.08 276.162C1005.93 263.299 988.367 256.867 966.398 256.867C943.562 256.867 924.99 264.455 910.682 279.631C896.373 294.951 889.219 314.752 889.219 339.033V478H872.309V244.51ZM1288.78 478H1273.17V427.053H1272.52C1267.31 442.951 1257.12 455.887 1241.95 465.859C1226.48 475.977 1209.14 481.035 1189.92 481.035C1164.48 481.035 1144.1 473.375 1128.78 458.055C1113.03 442.59 1105.15 421.922 1105.15 396.051V244.51H1122.06V393.449C1122.06 416.141 1128.56 433.918 1141.57 446.781C1154.43 459.5 1171.71 465.859 1193.38 465.859C1216.08 465.859 1234.72 458.416 1249.32 443.529C1264.49 428.354 1272.08 408.553 1272.08 384.127V244.51H1288.78V478ZM1411.92 372.854L1336.69 478H1317.18L1402.81 359.629L1317.39 244.51H1337.34L1412.13 346.621H1412.78L1487.36 244.51H1507.31L1421.89 359.195L1506.87 478H1487.36L1412.35 372.854H1411.92Z" fill="#0066FF"/>
</svg>
